<svg xmlns="http://www.w3.org/2000/svg" xmlns:xlink="http://www.w3.org/1999/xlink" width="148pt" height="200pt" version="1.1" viewBox="0 0 148 200"><g id="surface1"><path style="stroke:none;fill-rule:nonzero;fill:#5382a1;fill-opacity:1" d="M 47.71875 154.609375 C 47.71875 154.609375 40.089844 159.046875 53.148438 160.546875 C 68.96875 162.351562 77.054688 162.09375 94.488281 158.792969 C 94.488281 158.792969 99.070312 161.667969 105.472656 164.15625 C 66.390625 180.90625 17.023438 163.1875 47.71875 154.609375 M 42.941406 132.75 C 42.941406 132.75 34.386719 139.085938 47.453125 140.4375 C 64.355469 142.179688 77.699219 142.324219 100.792969 137.875 C 100.792969 137.875 103.988281 141.113281 109.011719 142.886719 C 61.757812 156.703125 9.128906 143.972656 42.941406 132.75"/><path style="stroke:none;fill-rule:nonzero;fill:#e76f00;fill-opacity:1" d="M 83.203125 95.671875 C 92.832031 106.761719 80.671875 116.738281 80.671875 116.738281 C 80.671875 116.738281 105.125 104.113281 93.894531 88.308594 C 83.40625 73.566406 75.363281 66.242188 118.90625 40.992188 C 118.90625 40.992188 50.558594 58.058594 83.203125 95.671875"/><path style="stroke:none;fill-rule:nonzero;fill:#5382a1;fill-opacity:1" d="M 134.890625 170.777344 C 134.890625 170.777344 140.539062 175.425781 128.675781 179.027344 C 106.117188 185.859375 34.785156 187.921875 14.96875 179.296875 C 7.84375 176.199219 21.203125 171.898438 25.402344 170.996094 C 29.785156 170.046875 32.289062 170.222656 32.289062 170.222656 C 24.367188 164.644531 -18.914062 181.179688 10.304688 185.917969 C 89.988281 198.839844 155.5625 180.097656 134.890625 170.777344 M 51.386719 110.105469 C 51.386719 110.105469 15.101562 118.722656 38.539062 121.851562 C 48.433594 123.175781 68.160156 122.875 86.53125 121.335938 C 101.550781 120.070312 116.628906 117.378906 116.628906 117.378906 C 116.628906 117.378906 111.332031 119.644531 107.5 122.261719 C 70.65625 131.953125 -0.523438 127.441406 19.96875 117.53125 C 37.296875 109.152344 51.386719 110.105469 51.386719 110.105469 M 116.476562 146.488281 C 153.933594 127.023438 136.617188 108.320312 124.527344 110.839844 C 121.566406 111.457031 120.242188 111.988281 120.242188 111.988281 C 120.242188 111.988281 121.34375 110.265625 123.445312 109.519531 C 147.359375 101.113281 165.75 134.316406 115.726562 147.46875 C 115.726562 147.46875 116.304688 146.949219 116.476562 146.488281"/><path style="stroke:none;fill-rule:nonzero;fill:#e76f00;fill-opacity:1" d="M 93.894531 0.214844 C 93.894531 0.214844 114.640625 20.964844 74.222656 52.875 C 41.808594 78.46875 66.828125 93.066406 74.207031 109.738281 C 55.289062 92.671875 41.402344 77.644531 50.71875 63.660156 C 64.390625 43.128906 102.265625 33.175781 93.894531 0.214844"/><path style="stroke:none;fill-rule:nonzero;fill:#5382a1;fill-opacity:1" d="M 55.066406 199.226562 C 91.019531 201.53125 146.230469 197.953125 147.539062 180.9375 C 147.539062 180.9375 145.027344 187.390625 117.824219 192.511719 C 87.140625 198.285156 49.292969 197.609375 26.84375 193.910156 C 26.84375 193.910156 31.4375 197.714844 55.070312 199.226562"/></g></svg>