<svg xmlns="http://www.w3.org/2000/svg" xmlns:xlink="http://www.w3.org/1999/xlink" width="13pt" height="16" version="1.1" viewBox="0 0 13 12"><g id="surface1"><path style="stroke:none;fill-rule:nonzero;fill:#000;fill-opacity:1" d="M 6.5 0 C 2.910156 0 0 2.726562 0 6.089844 C 0 8.953125 2.097656 11.328125 4.925781 12 C 4.890625 11.921875 4.875 11.816406 4.875 11.710938 L 4.875 10.675781 L 4.0625 10.675781 C 3.625 10.675781 3.21875 10.492188 3.039062 10.15625 C 2.828125 9.789062 2.792969 9.226562 2.257812 8.875 C 2.097656 8.753906 2.226562 8.632812 2.40625 8.648438 C 2.746094 8.738281 3.023438 8.953125 3.28125 9.273438 C 3.542969 9.59375 3.65625 9.667969 4.144531 9.667969 C 4.371094 9.667969 4.726562 9.652344 5.054688 9.605469 C 5.230469 9.179688 5.539062 8.800781 5.914062 8.617188 C 3.738281 8.375 2.699219 7.367188 2.699219 6 C 2.699219 5.40625 2.972656 4.839844 3.429688 4.355469 C 3.28125 3.882812 3.085938 2.90625 3.492188 2.527344 C 4.46875 2.527344 5.054688 3.121094 5.199219 3.273438 C 5.6875 3.121094 6.222656 3.027344 6.777344 3.027344 C 7.34375 3.027344 7.863281 3.121094 8.351562 3.273438 C 8.5 3.121094 9.082031 2.527344 10.058594 2.527344 C 10.449219 2.890625 10.269531 3.882812 10.105469 4.355469 C 10.5625 4.824219 10.820312 5.40625 10.820312 6 C 10.820312 7.367188 9.796875 8.375 7.636719 8.585938 C 8.238281 8.875 8.660156 9.699219 8.660156 10.308594 L 8.660156 11.695312 C 8.660156 11.742188 8.644531 11.785156 8.644531 11.832031 C 11.179688 11.007812 13 8.757812 13 6.089844 C 13 2.726562 10.089844 0 6.5 0 Z M 6.5 0"/></g></svg>