<svg xmlns="http://www.w3.org/2000/svg" xmlns:xlink="http://www.w3.org/1999/xlink" width="16" height="12" version="1.1" viewBox="0 0 12 9"><defs><linearGradient id="linear0" x1="1959.712" x2="26066.213" y1="737.107" y2="737.107" gradientTransform="matrix(0.000265905,0,0,-0.000275606,2.266993,2.12524)" gradientUnits="userSpaceOnUse"><stop offset="0" style="stop-color:#f8f6ef;stop-opacity:1"/><stop offset="1" style="stop-color:#e7e4d6;stop-opacity:1"/></linearGradient><linearGradient id="linear1" x1="1959.712" x2="26066.213" y1="737.107" y2="737.107" gradientTransform="matrix(0.000265905,0,0,-0.000275606,2.266993,2.12524)" gradientUnits="userSpaceOnUse"><stop offset="0" style="stop-color:#f8f6ef;stop-opacity:1"/><stop offset="1" style="stop-color:#e7e4d6;stop-opacity:1"/></linearGradient><linearGradient id="linear2" x1="1959.712" x2="26066.213" y1="737.107" y2="737.107" gradientTransform="matrix(0.000265905,0,0,-0.000275606,2.266993,2.12524)" gradientUnits="userSpaceOnUse"><stop offset="0" style="stop-color:#f8f6ef;stop-opacity:1"/><stop offset="1" style="stop-color:#e7e4d6;stop-opacity:1"/></linearGradient><linearGradient id="linear3" x1="1959.712" x2="26066.213" y1="737.107" y2="737.107" gradientTransform="matrix(0.000265905,0,0,-0.000275606,2.266993,2.12524)" gradientUnits="userSpaceOnUse"><stop offset="0" style="stop-color:#f8f6ef;stop-opacity:1"/><stop offset="1" style="stop-color:#e7e4d6;stop-opacity:1"/></linearGradient><linearGradient id="linear4" x1="1959.712" x2="26066.213" y1="737.107" y2="737.107" gradientTransform="matrix(0.000265905,0,0,-0.000275606,2.266993,2.12524)" gradientUnits="userSpaceOnUse"><stop offset="0" style="stop-color:#f8f6ef;stop-opacity:1"/><stop offset="1" style="stop-color:#e7e4d6;stop-opacity:1"/></linearGradient><linearGradient id="linear5" x1="1959.712" x2="26066.213" y1="737.107" y2="737.107" gradientTransform="matrix(0.000265905,0,0,-0.000275606,2.266993,2.12524)" gradientUnits="userSpaceOnUse"><stop offset="0" style="stop-color:#f8f6ef;stop-opacity:1"/><stop offset="1" style="stop-color:#e7e4d6;stop-opacity:1"/></linearGradient><linearGradient id="linear6" x1="1959.712" x2="26066.213" y1="737.107" y2="737.107" gradientTransform="matrix(0.000265905,0,0,-0.000275606,2.266993,2.12524)" gradientUnits="userSpaceOnUse"><stop offset="0" style="stop-color:#f8f6ef;stop-opacity:1"/><stop offset="1" style="stop-color:#e7e4d6;stop-opacity:1"/></linearGradient><linearGradient id="linear7" x1="1959.712" x2="26066.213" y1="737.107" y2="737.107" gradientTransform="matrix(0.000265905,0,0,-0.000275606,2.266993,2.12524)" gradientUnits="userSpaceOnUse"><stop offset="0" style="stop-color:#f8f6ef;stop-opacity:1"/><stop offset="1" style="stop-color:#e7e4d6;stop-opacity:1"/></linearGradient></defs><g id="surface1"><path style="stroke:none;fill-rule:nonzero;fill:#e75a4d;fill-opacity:1" d="M 11.015625 0 C 11.554688 0 12 0.460938 12 1.019531 L 12 1.316406 L 10.632812 2.328125 L 5.984375 5.644531 L 1.332031 2.292969 L 1.332031 9 L 0.984375 9 C 0.441406 9 0 8.539062 0 7.980469 L 0 1.019531 C 0 0.460938 0.441406 0 0.984375 0 L 5.984375 3.84375 Z M 11.015625 0"/><path style="stroke:none;fill-rule:nonzero;fill:url(#linear0)" d="M 0.984375 0 L 5.984375 3.84375 L 11.015625 0 Z M 0.984375 0"/><path style="stroke:none;fill-rule:nonzero;fill:#e7e4d7;fill-opacity:1" d="M 1.332031 2.292969 L 1.332031 9 L 10.632812 9 L 10.632812 2.328125 L 5.984375 5.644531 Z M 1.332031 2.292969"/><path style="stroke:none;fill-rule:nonzero;fill:#b8b7ae;fill-opacity:1" d="M 1.332031 9 L 5.984375 5.644531 L 5.960938 5.628906 L 1.332031 8.925781 Z M 1.332031 9"/><path style="stroke:none;fill-rule:nonzero;fill:#b7b6ad;fill-opacity:1" d="M 10.632812 2.328125 L 10.636719 9 L 5.984375 5.644531 Z M 10.632812 2.328125"/><path style="stroke:none;fill-rule:nonzero;fill:#b2392f;fill-opacity:1" d="M 12 1.316406 L 12 7.980469 C 11.976562 8.722656 11.667969 8.988281 10.636719 9 L 10.632812 2.324219 Z M 12 1.316406"/><path style="stroke:none;fill-rule:nonzero;fill:url(#linear1)" d="M 0.984375 0 L 5.984375 3.84375 L 11.015625 0 Z M 0.984375 0"/><path style="stroke:none;fill-rule:nonzero;fill:url(#linear2)" d="M 0.984375 0 L 5.984375 3.84375 L 11.015625 0 Z M 0.984375 0"/><path style="stroke:none;fill-rule:nonzero;fill:url(#linear3)" d="M 0.984375 0 L 5.984375 3.84375 L 11.015625 0 Z M 0.984375 0"/><path style="stroke:none;fill-rule:nonzero;fill:url(#linear4)" d="M 0.984375 0 L 5.984375 3.84375 L 11.015625 0 Z M 0.984375 0"/><path style="stroke:none;fill-rule:nonzero;fill:url(#linear5)" d="M 0.984375 0 L 5.984375 3.84375 L 11.015625 0 Z M 0.984375 0"/><path style="stroke:none;fill-rule:nonzero;fill:url(#linear6)" d="M 0.984375 0 L 5.984375 3.84375 L 11.015625 0 Z M 0.984375 0"/><path style="stroke:none;fill-rule:nonzero;fill:url(#linear7)" d="M 0.984375 0 L 5.984375 3.84375 L 11.015625 0 Z M 0.984375 0"/><path style="stroke:none;fill-rule:nonzero;fill:#f7f5ed;fill-opacity:1" d="M 0.984375 0 L 5.984375 3.84375 L 11.015625 0 Z M 0.984375 0"/></g></svg>