<svg xmlns="http://www.w3.org/2000/svg" xmlns:xlink="http://www.w3.org/1999/xlink" width="13pt" height="13pt" version="1.1" viewBox="0 0 13 13"><g id="surface1"><path style="stroke:none;fill-rule:nonzero;fill:#2daae1;fill-opacity:1" d="M 13 6.5 C 13 10.089844 10.089844 13 6.5 13 C 2.910156 13 0 10.089844 0 6.5 C 0 2.910156 2.910156 0 6.5 0 C 10.089844 0 13 2.910156 13 6.5 Z M 13 6.5"/><path style="stroke:none;fill-rule:nonzero;fill:#fff;fill-opacity:1" d="M 10.667969 3.914062 C 10.359375 4.050781 10.03125 4.140625 9.6875 4.183594 C 10.039062 3.972656 10.308594 3.636719 10.4375 3.238281 C 10.101562 3.4375 9.734375 3.578125 9.351562 3.652344 C 9.039062 3.320312 8.59375 3.113281 8.101562 3.113281 C 7.160156 3.113281 6.394531 3.878906 6.394531 4.824219 C 6.394531 4.957031 6.410156 5.085938 6.4375 5.210938 C 5.015625 5.140625 3.757812 4.460938 2.914062 3.425781 C 2.765625 3.679688 2.679688 3.972656 2.679688 4.285156 C 2.679688 4.878906 2.984375 5.402344 3.441406 5.707031 C 3.171875 5.699219 2.90625 5.628906 2.667969 5.496094 L 2.667969 5.515625 C 2.667969 6.34375 3.257812 7.035156 4.039062 7.191406 C 3.894531 7.234375 3.746094 7.253906 3.589844 7.253906 C 3.476562 7.253906 3.371094 7.242188 3.265625 7.222656 C 3.484375 7.902344 4.117188 8.398438 4.863281 8.410156 C 4.277344 8.871094 3.542969 9.144531 2.742188 9.144531 C 2.601562 9.144531 2.464844 9.132812 2.332031 9.117188 C 3.089844 9.605469 3.988281 9.886719 4.953125 9.886719 C 8.097656 9.886719 9.820312 7.28125 9.820312 5.023438 C 9.820312 4.949219 9.816406 4.875 9.8125 4.800781 C 10.148438 4.558594 10.4375 4.257812 10.667969 3.914062 Z M 10.667969 3.914062"/></g></svg>